<mxfile host="app.diagrams.net" modified="2021-05-18T20:54:43.552Z" agent="5.0 (X11)" etag="2pnxKzh_ie04-tzplBJY" version="14.6.13" type="github">
  <diagram id="6a731a19-8d31-9384-78a2-239565b7b9f0" name="Page-1">
    <mxGraphModel dx="2559" dy="651" grid="1" gridSize="10" guides="1" tooltips="1" connect="1" arrows="1" fold="1" page="1" pageScale="1" pageWidth="1169" pageHeight="827" background="#ffffff" math="0" shadow="0">
      <root>
        <mxCell id="0" />
        <mxCell id="1" parent="0" />
        <mxCell id="R8b1aDfxQuAAKfUh75f4-1803" style="edgeStyle=orthogonalEdgeStyle;rounded=0;orthogonalLoop=1;jettySize=auto;html=1;exitX=0.5;exitY=0;exitDx=0;exitDy=0;entryX=0;entryY=0.5;entryDx=0;entryDy=0;" edge="1" parent="1" source="1753" target="1756">
          <mxGeometry relative="1" as="geometry">
            <Array as="points">
              <mxPoint x="75" y="291" />
            </Array>
          </mxGeometry>
        </mxCell>
        <mxCell id="R8b1aDfxQuAAKfUh75f4-1804" style="edgeStyle=orthogonalEdgeStyle;rounded=0;orthogonalLoop=1;jettySize=auto;html=1;exitX=1;exitY=0.5;exitDx=0;exitDy=0;entryX=0;entryY=0.5;entryDx=0;entryDy=0;" edge="1" parent="1" source="1753" target="1755">
          <mxGeometry relative="1" as="geometry" />
        </mxCell>
        <mxCell id="R8b1aDfxQuAAKfUh75f4-1809" style="edgeStyle=orthogonalEdgeStyle;rounded=0;orthogonalLoop=1;jettySize=auto;html=1;exitX=0.5;exitY=1;exitDx=0;exitDy=0;entryX=0;entryY=0.5;entryDx=0;entryDy=0;" edge="1" parent="1" source="1753" target="1754">
          <mxGeometry relative="1" as="geometry">
            <Array as="points">
              <mxPoint x="75" y="525" />
            </Array>
          </mxGeometry>
        </mxCell>
        <mxCell id="1753" value="Atma" style="rounded=1;whiteSpace=wrap;html=1;shadow=0;labelBackgroundColor=none;strokeColor=none;strokeWidth=3;fillColor=#e85642;fontFamily=Helvetica;fontSize=14;fontColor=#FFFFFF;align=center;spacing=5;fontStyle=1;arcSize=7;perimeterSpacing=2;" parent="1" vertex="1">
          <mxGeometry y="385.5" width="150" height="60" as="geometry" />
        </mxCell>
        <mxCell id="R8b1aDfxQuAAKfUh75f4-1800" style="edgeStyle=orthogonalEdgeStyle;rounded=0;orthogonalLoop=1;jettySize=auto;html=1;exitX=1;exitY=0.5;exitDx=0;exitDy=0;entryX=0;entryY=0.5;entryDx=0;entryDy=0;" edge="1" parent="1" source="1754" target="R8b1aDfxQuAAKfUh75f4-1799">
          <mxGeometry relative="1" as="geometry" />
        </mxCell>
        <mxCell id="1754" value="Sakaam Karma" style="rounded=1;whiteSpace=wrap;html=1;shadow=0;labelBackgroundColor=none;strokeColor=none;strokeWidth=3;fillColor=#f08e81;fontFamily=Helvetica;fontSize=14;fontColor=#FFFFFF;align=center;spacing=5;fontStyle=0;arcSize=7;perimeterSpacing=2;" parent="1" vertex="1">
          <mxGeometry x="250" y="495" width="150" height="60" as="geometry" />
        </mxCell>
        <mxCell id="R8b1aDfxQuAAKfUh75f4-1807" style="edgeStyle=orthogonalEdgeStyle;rounded=0;orthogonalLoop=1;jettySize=auto;html=1;exitX=0.5;exitY=1;exitDx=0;exitDy=0;entryX=0.5;entryY=0;entryDx=0;entryDy=0;" edge="1" parent="1" source="1755" target="1754">
          <mxGeometry relative="1" as="geometry" />
        </mxCell>
        <mxCell id="R8b1aDfxQuAAKfUh75f4-1808" style="edgeStyle=orthogonalEdgeStyle;rounded=0;orthogonalLoop=1;jettySize=auto;html=1;exitX=0.5;exitY=0;exitDx=0;exitDy=0;entryX=0.5;entryY=1;entryDx=0;entryDy=0;" edge="1" parent="1" source="1755" target="1756">
          <mxGeometry relative="1" as="geometry" />
        </mxCell>
        <mxCell id="1755" value="Knowledge" style="rounded=1;whiteSpace=wrap;html=1;shadow=0;labelBackgroundColor=none;strokeColor=none;strokeWidth=3;fillColor=#f08e81;fontFamily=Helvetica;fontSize=14;fontColor=#FFFFFF;align=center;spacing=5;fontStyle=0;arcSize=7;perimeterSpacing=2;" parent="1" vertex="1">
          <mxGeometry x="250" y="385.5" width="150" height="60" as="geometry" />
        </mxCell>
        <mxCell id="R8b1aDfxQuAAKfUh75f4-1794" style="edgeStyle=orthogonalEdgeStyle;rounded=0;orthogonalLoop=1;jettySize=auto;html=1;exitX=1;exitY=0.5;exitDx=0;exitDy=0;entryX=0;entryY=0.5;entryDx=0;entryDy=0;" edge="1" parent="1" source="1756" target="R8b1aDfxQuAAKfUh75f4-1793">
          <mxGeometry relative="1" as="geometry" />
        </mxCell>
        <mxCell id="1756" value="Nishkaam Karma" style="rounded=1;whiteSpace=wrap;html=1;shadow=0;labelBackgroundColor=none;strokeColor=none;strokeWidth=3;fillColor=#f08e81;fontFamily=Helvetica;fontSize=14;fontColor=#FFFFFF;align=center;spacing=5;fontStyle=0;arcSize=7;perimeterSpacing=2;" parent="1" vertex="1">
          <mxGeometry x="250" y="260.5" width="150" height="60" as="geometry" />
        </mxCell>
        <mxCell id="R8b1aDfxQuAAKfUh75f4-1849" style="edgeStyle=elbowEdgeStyle;rounded=0;orthogonalLoop=1;jettySize=auto;html=1;exitX=0;exitY=0.5;exitDx=0;exitDy=0;entryX=0.5;entryY=1;entryDx=0;entryDy=0;" edge="1" parent="1" source="1760" target="R8b1aDfxQuAAKfUh75f4-1839">
          <mxGeometry relative="1" as="geometry">
            <Array as="points">
              <mxPoint x="325" y="930" />
            </Array>
          </mxGeometry>
        </mxCell>
        <mxCell id="R8b1aDfxQuAAKfUh75f4-1851" style="edgeStyle=elbowEdgeStyle;rounded=0;orthogonalLoop=1;jettySize=auto;html=1;exitX=0.5;exitY=0;exitDx=0;exitDy=0;entryX=0.5;entryY=1;entryDx=0;entryDy=0;" edge="1" parent="1" source="1760" target="1762">
          <mxGeometry relative="1" as="geometry" />
        </mxCell>
        <mxCell id="1760" value="Kaam Yoga" style="rounded=1;whiteSpace=wrap;html=1;shadow=0;labelBackgroundColor=none;strokeColor=none;strokeWidth=3;fillColor=#1699d3;fontFamily=Helvetica;fontSize=14;fontColor=#FFFFFF;align=center;spacing=5;fontStyle=1;arcSize=7;perimeterSpacing=2;" parent="1" vertex="1">
          <mxGeometry x="495" y="1070" width="150" height="60" as="geometry" />
        </mxCell>
        <mxCell id="R8b1aDfxQuAAKfUh75f4-1843" style="edgeStyle=elbowEdgeStyle;rounded=0;orthogonalLoop=1;jettySize=auto;html=1;exitX=0.5;exitY=0;exitDx=0;exitDy=0;entryX=0.5;entryY=1;entryDx=0;entryDy=0;" edge="1" parent="1" source="1762" target="R8b1aDfxQuAAKfUh75f4-1838">
          <mxGeometry relative="1" as="geometry" />
        </mxCell>
        <mxCell id="1762" value="Matrix" style="rounded=1;whiteSpace=wrap;html=1;shadow=0;labelBackgroundColor=none;strokeColor=none;strokeWidth=3;fillColor=#64bbe2;fontFamily=Helvetica;fontSize=14;fontColor=#FFFFFF;align=center;spacing=5;arcSize=7;perimeterSpacing=2;" parent="1" vertex="1">
          <mxGeometry x="495" y="970" width="150" height="60" as="geometry" />
        </mxCell>
        <mxCell id="1764" value="&amp;nbsp;Karm Yoga" style="rounded=1;whiteSpace=wrap;html=1;shadow=0;labelBackgroundColor=none;strokeColor=none;strokeWidth=3;fillColor=#F08705;fontFamily=Helvetica;fontSize=14;fontColor=#FFFFFF;align=center;spacing=5;fontStyle=1;arcSize=7;perimeterSpacing=2;" parent="1" vertex="1">
          <mxGeometry x="495" y="90" width="150" height="60" as="geometry" />
        </mxCell>
        <mxCell id="R8b1aDfxQuAAKfUh75f4-1875" style="edgeStyle=elbowEdgeStyle;rounded=0;orthogonalLoop=1;jettySize=auto;html=1;exitX=0.5;exitY=0;exitDx=0;exitDy=0;entryX=1;entryY=0.5;entryDx=0;entryDy=0;" edge="1" parent="1" source="1771" target="1778">
          <mxGeometry relative="1" as="geometry">
            <Array as="points">
              <mxPoint x="1460" y="340" />
            </Array>
          </mxGeometry>
        </mxCell>
        <mxCell id="R8b1aDfxQuAAKfUh75f4-1876" style="edgeStyle=elbowEdgeStyle;rounded=0;orthogonalLoop=1;jettySize=auto;html=1;exitX=0.5;exitY=1;exitDx=0;exitDy=0;entryX=1;entryY=0.5;entryDx=0;entryDy=0;" edge="1" parent="1" source="1771" target="1772">
          <mxGeometry relative="1" as="geometry">
            <Array as="points">
              <mxPoint x="1460" y="510" />
            </Array>
          </mxGeometry>
        </mxCell>
        <mxCell id="1771" value="Prakriti" style="rounded=1;whiteSpace=wrap;html=1;shadow=0;labelBackgroundColor=none;strokeColor=none;strokeWidth=3;fillColor=#12aab5;fontFamily=Helvetica;fontSize=14;fontColor=#FFFFFF;align=center;spacing=5;fontStyle=1;arcSize=7;perimeterSpacing=2;" parent="1" vertex="1">
          <mxGeometry x="1390" y="320.4999999999999" width="150" height="60" as="geometry" />
        </mxCell>
        <mxCell id="R8b1aDfxQuAAKfUh75f4-1886" style="edgeStyle=elbowEdgeStyle;rounded=0;orthogonalLoop=1;jettySize=auto;elbow=vertical;html=1;exitX=0.5;exitY=0;exitDx=0;exitDy=0;entryX=1;entryY=0.5;entryDx=0;entryDy=0;" edge="1" parent="1" source="1772" target="R8b1aDfxQuAAKfUh75f4-1779">
          <mxGeometry relative="1" as="geometry">
            <Array as="points">
              <mxPoint x="1300" y="291" />
              <mxPoint x="1340" y="300" />
            </Array>
          </mxGeometry>
        </mxCell>
        <mxCell id="1772" value="Chitaa" style="rounded=1;whiteSpace=wrap;html=1;shadow=0;labelBackgroundColor=none;strokeColor=none;strokeWidth=3;fillColor=#61c6ce;fontFamily=Helvetica;fontSize=14;fontColor=#FFFFFF;align=center;spacing=5;fontStyle=0;arcSize=7;perimeterSpacing=2;" parent="1" vertex="1">
          <mxGeometry x="1265" y="460" width="150" height="60" as="geometry" />
        </mxCell>
        <mxCell id="R8b1aDfxQuAAKfUh75f4-1885" style="edgeStyle=elbowEdgeStyle;rounded=0;orthogonalLoop=1;jettySize=auto;elbow=vertical;html=1;exitX=0.5;exitY=1;exitDx=0;exitDy=0;entryX=1;entryY=0.5;entryDx=0;entryDy=0;" edge="1" parent="1" source="1778" target="R8b1aDfxQuAAKfUh75f4-1780">
          <mxGeometry relative="1" as="geometry">
            <Array as="points">
              <mxPoint x="1340" y="390" />
            </Array>
          </mxGeometry>
        </mxCell>
        <mxCell id="1778" value="Mana" style="rounded=1;whiteSpace=wrap;html=1;shadow=0;labelBackgroundColor=none;strokeColor=none;strokeWidth=3;fillColor=#61c6ce;fontFamily=Helvetica;fontSize=14;fontColor=#FFFFFF;align=center;spacing=5;fontStyle=0;arcSize=7;perimeterSpacing=2;" parent="1" vertex="1">
          <mxGeometry x="1265" y="190" width="150" height="60" as="geometry" />
        </mxCell>
        <mxCell id="R8b1aDfxQuAAKfUh75f4-1791" style="edgeStyle=orthogonalEdgeStyle;rounded=0;orthogonalLoop=1;jettySize=auto;html=1;exitX=0;exitY=0.5;exitDx=0;exitDy=0;entryX=1;entryY=0.5;entryDx=0;entryDy=0;" edge="1" parent="1" source="R8b1aDfxQuAAKfUh75f4-1779" target="R8b1aDfxQuAAKfUh75f4-1789">
          <mxGeometry relative="1" as="geometry" />
        </mxCell>
        <mxCell id="R8b1aDfxQuAAKfUh75f4-1779" value="&lt;div&gt;Stable &lt;br&gt;&lt;/div&gt;&lt;div&gt;Samttva Buddhi&lt;br&gt;&lt;/div&gt;" style="rounded=1;whiteSpace=wrap;html=1;shadow=0;labelBackgroundColor=none;strokeColor=none;strokeWidth=3;fillColor=#61c6ce;fontFamily=Helvetica;fontSize=14;fontColor=#FFFFFF;align=center;spacing=5;fontStyle=0;arcSize=7;perimeterSpacing=2;" vertex="1" parent="1">
          <mxGeometry x="1100" y="260.5" width="150" height="60" as="geometry" />
        </mxCell>
        <mxCell id="R8b1aDfxQuAAKfUh75f4-1795" style="edgeStyle=orthogonalEdgeStyle;rounded=0;orthogonalLoop=1;jettySize=auto;html=1;exitX=0;exitY=0.5;exitDx=0;exitDy=0;" edge="1" parent="1" source="R8b1aDfxQuAAKfUh75f4-1789" target="R8b1aDfxQuAAKfUh75f4-1793">
          <mxGeometry relative="1" as="geometry" />
        </mxCell>
        <mxCell id="R8b1aDfxQuAAKfUh75f4-1789" value="Expansive /Encompassing" style="rounded=1;whiteSpace=wrap;html=1;shadow=0;labelBackgroundColor=none;strokeColor=none;strokeWidth=3;fillColor=#61c6ce;fontFamily=Helvetica;fontSize=14;fontColor=#FFFFFF;align=center;spacing=5;fontStyle=0;arcSize=7;perimeterSpacing=2;" vertex="1" parent="1">
          <mxGeometry x="730" y="260.5" width="150" height="60" as="geometry" />
        </mxCell>
        <mxCell id="R8b1aDfxQuAAKfUh75f4-1796" style="edgeStyle=orthogonalEdgeStyle;rounded=0;orthogonalLoop=1;jettySize=auto;html=1;exitX=0.5;exitY=0;exitDx=0;exitDy=0;entryX=0.5;entryY=1;entryDx=0;entryDy=0;" edge="1" parent="1" source="R8b1aDfxQuAAKfUh75f4-1793" target="1764">
          <mxGeometry relative="1" as="geometry" />
        </mxCell>
        <mxCell id="R8b1aDfxQuAAKfUh75f4-1793" value="&lt;div&gt;Nishkaam &lt;br&gt;&lt;/div&gt;&lt;div&gt;Yajna&lt;br&gt;&lt;/div&gt;" style="rounded=1;whiteSpace=wrap;html=1;shadow=0;labelBackgroundColor=none;strokeColor=none;strokeWidth=3;fillColor=#66B2FF;fontFamily=Helvetica;fontSize=14;fontColor=#FFFFFF;align=center;spacing=5;fontStyle=0;arcSize=7;perimeterSpacing=2;" vertex="1" parent="1">
          <mxGeometry x="495" y="260.5" width="150" height="60" as="geometry" />
        </mxCell>
        <mxCell id="R8b1aDfxQuAAKfUh75f4-1818" style="edgeStyle=orthogonalEdgeStyle;rounded=0;orthogonalLoop=1;jettySize=auto;html=1;exitX=0.5;exitY=1;exitDx=0;exitDy=0;" edge="1" parent="1" source="R8b1aDfxQuAAKfUh75f4-1797" target="R8b1aDfxQuAAKfUh75f4-1799">
          <mxGeometry relative="1" as="geometry" />
        </mxCell>
        <mxCell id="R8b1aDfxQuAAKfUh75f4-1872" style="edgeStyle=elbowEdgeStyle;rounded=0;orthogonalLoop=1;jettySize=auto;html=1;exitX=1;exitY=0.5;exitDx=0;exitDy=0;entryX=0.5;entryY=0;entryDx=0;entryDy=0;" edge="1" parent="1" source="R8b1aDfxQuAAKfUh75f4-1797" target="R8b1aDfxQuAAKfUh75f4-1801">
          <mxGeometry relative="1" as="geometry">
            <Array as="points">
              <mxPoint x="755" y="480" />
              <mxPoint x="740" y="470" />
              <mxPoint x="750" y="460" />
            </Array>
          </mxGeometry>
        </mxCell>
        <mxCell id="R8b1aDfxQuAAKfUh75f4-1873" value="SAR " style="edgeLabel;html=1;align=center;verticalAlign=middle;resizable=0;points=[];" vertex="1" connectable="0" parent="R8b1aDfxQuAAKfUh75f4-1872">
          <mxGeometry x="0.4286" y="3" relative="1" as="geometry">
            <mxPoint as="offset" />
          </mxGeometry>
        </mxCell>
        <mxCell id="R8b1aDfxQuAAKfUh75f4-1797" value="Options" style="rounded=1;whiteSpace=wrap;html=1;shadow=0;labelBackgroundColor=none;strokeColor=none;strokeWidth=3;fillColor=#66B2FF;fontFamily=Helvetica;fontSize=14;fontColor=#FFFFFF;align=center;spacing=5;fontStyle=0;arcSize=7;perimeterSpacing=2;" vertex="1" parent="1">
          <mxGeometry x="495" y="385.5" width="150" height="60" as="geometry" />
        </mxCell>
        <mxCell id="R8b1aDfxQuAAKfUh75f4-1831" style="edgeStyle=elbowEdgeStyle;rounded=0;orthogonalLoop=1;jettySize=auto;html=1;exitX=0.5;exitY=1;exitDx=0;exitDy=0;entryX=0.5;entryY=0;entryDx=0;entryDy=0;" edge="1" parent="1" source="R8b1aDfxQuAAKfUh75f4-1799" target="R8b1aDfxQuAAKfUh75f4-1830">
          <mxGeometry relative="1" as="geometry" />
        </mxCell>
        <mxCell id="R8b1aDfxQuAAKfUh75f4-1858" value="Moha / Illusion" style="edgeLabel;html=1;align=center;verticalAlign=middle;resizable=0;points=[];" vertex="1" connectable="0" parent="R8b1aDfxQuAAKfUh75f4-1831">
          <mxGeometry x="-0.4634" y="-2" relative="1" as="geometry">
            <mxPoint as="offset" />
          </mxGeometry>
        </mxCell>
        <mxCell id="R8b1aDfxQuAAKfUh75f4-1799" value="&lt;div&gt;Sakaam &lt;br&gt;&lt;/div&gt;&lt;div&gt;Yajna&lt;/div&gt;" style="rounded=1;whiteSpace=wrap;html=1;shadow=0;labelBackgroundColor=none;strokeColor=none;strokeWidth=3;fillColor=#66B2FF;fontFamily=Helvetica;fontSize=14;fontColor=#FFFFFF;align=center;spacing=5;fontStyle=0;arcSize=7;perimeterSpacing=2;" vertex="1" parent="1">
          <mxGeometry x="495" y="495" width="150" height="60" as="geometry" />
        </mxCell>
        <mxCell id="R8b1aDfxQuAAKfUh75f4-1874" style="edgeStyle=elbowEdgeStyle;rounded=0;orthogonalLoop=1;jettySize=auto;html=1;entryX=0.5;entryY=1;entryDx=0;entryDy=0;" edge="1" parent="1" source="R8b1aDfxQuAAKfUh75f4-1801" target="R8b1aDfxQuAAKfUh75f4-1860">
          <mxGeometry relative="1" as="geometry">
            <Array as="points">
              <mxPoint x="885" y="580" />
              <mxPoint x="880" y="520" />
            </Array>
          </mxGeometry>
        </mxCell>
        <mxCell id="R8b1aDfxQuAAKfUh75f4-1801" value="&lt;div&gt;Uavorable&lt;/div&gt;&lt;div&gt;Outcomes&lt;br&gt;&lt;/div&gt;" style="rounded=1;whiteSpace=wrap;html=1;shadow=0;labelBackgroundColor=none;strokeColor=none;strokeWidth=3;fillColor=#61c6ce;fontFamily=Helvetica;fontSize=14;fontColor=#FFFFFF;align=center;spacing=5;fontStyle=0;arcSize=7;perimeterSpacing=2;" vertex="1" parent="1">
          <mxGeometry x="680" y="530" width="150" height="60" as="geometry" />
        </mxCell>
        <mxCell id="R8b1aDfxQuAAKfUh75f4-1865" style="edgeStyle=elbowEdgeStyle;rounded=0;orthogonalLoop=1;jettySize=auto;html=1;exitX=1;exitY=0.5;exitDx=0;exitDy=0;entryX=0;entryY=0.5;entryDx=0;entryDy=0;" edge="1" parent="1" source="R8b1aDfxQuAAKfUh75f4-1816" target="R8b1aDfxQuAAKfUh75f4-1864">
          <mxGeometry relative="1" as="geometry" />
        </mxCell>
        <mxCell id="R8b1aDfxQuAAKfUh75f4-1816" value="&lt;div&gt;Ffavorable&lt;/div&gt;&lt;div&gt;Outcomes&lt;br&gt;&lt;/div&gt;" style="rounded=1;whiteSpace=wrap;html=1;shadow=0;labelBackgroundColor=none;strokeColor=none;strokeWidth=3;fillColor=#61c6ce;fontFamily=Helvetica;fontSize=14;fontColor=#FFFFFF;align=center;spacing=5;fontStyle=0;arcSize=7;perimeterSpacing=2;" vertex="1" parent="1">
          <mxGeometry x="680" y="660" width="150" height="60" as="geometry" />
        </mxCell>
        <mxCell id="R8b1aDfxQuAAKfUh75f4-1832" style="edgeStyle=elbowEdgeStyle;rounded=0;orthogonalLoop=1;jettySize=auto;html=1;exitX=1;exitY=0.5;exitDx=0;exitDy=0;entryX=0;entryY=0.5;entryDx=0;entryDy=0;" edge="1" parent="1" source="R8b1aDfxQuAAKfUh75f4-1830" target="R8b1aDfxQuAAKfUh75f4-1801">
          <mxGeometry relative="1" as="geometry" />
        </mxCell>
        <mxCell id="R8b1aDfxQuAAKfUh75f4-1833" style="edgeStyle=elbowEdgeStyle;rounded=0;orthogonalLoop=1;jettySize=auto;html=1;exitX=1;exitY=0.5;exitDx=0;exitDy=0;entryX=0;entryY=0.5;entryDx=0;entryDy=0;" edge="1" parent="1" source="R8b1aDfxQuAAKfUh75f4-1830" target="R8b1aDfxQuAAKfUh75f4-1816">
          <mxGeometry relative="1" as="geometry" />
        </mxCell>
        <mxCell id="R8b1aDfxQuAAKfUh75f4-1830" value="Manifestations" style="rounded=1;whiteSpace=wrap;html=1;shadow=0;labelBackgroundColor=none;strokeColor=none;strokeWidth=3;fillColor=#66B2FF;fontFamily=Helvetica;fontSize=14;fontColor=#FFFFFF;align=center;spacing=5;fontStyle=0;arcSize=7;perimeterSpacing=2;" vertex="1" parent="1">
          <mxGeometry x="495" y="600" width="150" height="60" as="geometry" />
        </mxCell>
        <mxCell id="R8b1aDfxQuAAKfUh75f4-1853" style="edgeStyle=elbowEdgeStyle;rounded=0;orthogonalLoop=1;jettySize=auto;html=1;exitX=0.5;exitY=0;exitDx=0;exitDy=0;entryX=0.5;entryY=1;entryDx=0;entryDy=0;" edge="1" parent="1" source="R8b1aDfxQuAAKfUh75f4-1838" target="R8b1aDfxQuAAKfUh75f4-1852">
          <mxGeometry relative="1" as="geometry" />
        </mxCell>
        <mxCell id="R8b1aDfxQuAAKfUh75f4-1838" value="Interface" style="rounded=1;whiteSpace=wrap;html=1;shadow=0;labelBackgroundColor=none;strokeColor=none;strokeWidth=3;fillColor=#64bbe2;fontFamily=Helvetica;fontSize=14;fontColor=#FFFFFF;align=center;spacing=5;arcSize=7;perimeterSpacing=2;" vertex="1" parent="1">
          <mxGeometry x="495" y="870" width="150" height="60" as="geometry" />
        </mxCell>
        <mxCell id="R8b1aDfxQuAAKfUh75f4-1841" style="edgeStyle=elbowEdgeStyle;rounded=0;orthogonalLoop=1;jettySize=auto;html=1;exitX=0.5;exitY=0;exitDx=0;exitDy=0;entryX=0.5;entryY=1;entryDx=0;entryDy=0;" edge="1" parent="1" source="R8b1aDfxQuAAKfUh75f4-1839" target="1754">
          <mxGeometry relative="1" as="geometry" />
        </mxCell>
        <mxCell id="R8b1aDfxQuAAKfUh75f4-1839" value="Desires" style="rounded=1;whiteSpace=wrap;html=1;shadow=0;labelBackgroundColor=none;strokeColor=none;strokeWidth=3;fillColor=#64bbe2;fontFamily=Helvetica;fontSize=14;fontColor=#FFFFFF;align=center;spacing=5;arcSize=7;perimeterSpacing=2;" vertex="1" parent="1">
          <mxGeometry x="250" y="740" width="150" height="60" as="geometry" />
        </mxCell>
        <mxCell id="R8b1aDfxQuAAKfUh75f4-1856" style="edgeStyle=elbowEdgeStyle;rounded=0;orthogonalLoop=1;jettySize=auto;html=1;exitX=0.5;exitY=0;exitDx=0;exitDy=0;entryX=0.5;entryY=1;entryDx=0;entryDy=0;" edge="1" parent="1" source="R8b1aDfxQuAAKfUh75f4-1852" target="R8b1aDfxQuAAKfUh75f4-1855">
          <mxGeometry relative="1" as="geometry" />
        </mxCell>
        <mxCell id="R8b1aDfxQuAAKfUh75f4-1852" value="Duality" style="rounded=1;whiteSpace=wrap;html=1;shadow=0;labelBackgroundColor=none;strokeColor=none;strokeWidth=3;fillColor=#64bbe2;fontFamily=Helvetica;fontSize=14;fontColor=#FFFFFF;align=center;spacing=5;arcSize=7;perimeterSpacing=2;" vertex="1" parent="1">
          <mxGeometry x="495" y="780" width="150" height="60" as="geometry" />
        </mxCell>
        <mxCell id="R8b1aDfxQuAAKfUh75f4-1857" style="edgeStyle=elbowEdgeStyle;rounded=0;orthogonalLoop=1;jettySize=auto;html=1;exitX=0.5;exitY=0;exitDx=0;exitDy=0;entryX=0.5;entryY=1;entryDx=0;entryDy=0;" edge="1" parent="1" source="R8b1aDfxQuAAKfUh75f4-1855" target="R8b1aDfxQuAAKfUh75f4-1830">
          <mxGeometry relative="1" as="geometry" />
        </mxCell>
        <mxCell id="R8b1aDfxQuAAKfUh75f4-1855" value="ID / Ego" style="rounded=1;whiteSpace=wrap;html=1;shadow=0;labelBackgroundColor=none;strokeColor=none;strokeWidth=3;fillColor=#64bbe2;fontFamily=Helvetica;fontSize=14;fontColor=#FFFFFF;align=center;spacing=5;arcSize=7;perimeterSpacing=2;" vertex="1" parent="1">
          <mxGeometry x="495" y="690" width="150" height="60" as="geometry" />
        </mxCell>
        <mxCell id="R8b1aDfxQuAAKfUh75f4-1890" style="edgeStyle=elbowEdgeStyle;rounded=0;orthogonalLoop=1;jettySize=auto;elbow=vertical;html=1;exitX=1;exitY=0.5;exitDx=0;exitDy=0;entryX=0;entryY=0.5;entryDx=0;entryDy=0;" edge="1" parent="1" source="R8b1aDfxQuAAKfUh75f4-1860" target="R8b1aDfxQuAAKfUh75f4-1780">
          <mxGeometry relative="1" as="geometry" />
        </mxCell>
        <mxCell id="R8b1aDfxQuAAKfUh75f4-1891" value="Anger" style="edgeLabel;html=1;align=center;verticalAlign=middle;resizable=0;points=[];" vertex="1" connectable="0" parent="R8b1aDfxQuAAKfUh75f4-1890">
          <mxGeometry x="-0.5147" relative="1" as="geometry">
            <mxPoint as="offset" />
          </mxGeometry>
        </mxCell>
        <mxCell id="R8b1aDfxQuAAKfUh75f4-1860" value="Pain" style="rounded=1;whiteSpace=wrap;html=1;shadow=0;labelBackgroundColor=none;strokeColor=none;strokeWidth=3;fillColor=#61c6ce;fontFamily=Helvetica;fontSize=14;fontColor=#FFFFFF;align=center;spacing=5;fontStyle=0;arcSize=7;perimeterSpacing=2;" vertex="1" parent="1">
          <mxGeometry x="810" y="360" width="150" height="60" as="geometry" />
        </mxCell>
        <mxCell id="R8b1aDfxQuAAKfUh75f4-1888" style="edgeStyle=elbowEdgeStyle;rounded=0;orthogonalLoop=1;jettySize=auto;elbow=vertical;html=1;exitX=1;exitY=0.5;exitDx=0;exitDy=0;entryX=0.5;entryY=1;entryDx=0;entryDy=0;" edge="1" parent="1" source="R8b1aDfxQuAAKfUh75f4-1864" target="R8b1aDfxQuAAKfUh75f4-1780">
          <mxGeometry relative="1" as="geometry">
            <Array as="points">
              <mxPoint x="1200" y="690" />
            </Array>
          </mxGeometry>
        </mxCell>
        <mxCell id="R8b1aDfxQuAAKfUh75f4-1889" value="Greed" style="edgeLabel;html=1;align=center;verticalAlign=middle;resizable=0;points=[];" vertex="1" connectable="0" parent="R8b1aDfxQuAAKfUh75f4-1888">
          <mxGeometry x="-0.3504" y="-1" relative="1" as="geometry">
            <mxPoint as="offset" />
          </mxGeometry>
        </mxCell>
        <mxCell id="R8b1aDfxQuAAKfUh75f4-1864" value="Happiness" style="rounded=1;whiteSpace=wrap;html=1;shadow=0;labelBackgroundColor=none;strokeColor=none;strokeWidth=3;fillColor=#61c6ce;fontFamily=Helvetica;fontSize=14;fontColor=#FFFFFF;align=center;spacing=5;fontStyle=0;arcSize=7;perimeterSpacing=2;" vertex="1" parent="1">
          <mxGeometry x="940" y="660" width="150" height="60" as="geometry" />
        </mxCell>
        <mxCell id="R8b1aDfxQuAAKfUh75f4-1887" style="edgeStyle=elbowEdgeStyle;rounded=0;orthogonalLoop=1;jettySize=auto;elbow=vertical;html=1;exitX=0.5;exitY=0;exitDx=0;exitDy=0;entryX=0.578;entryY=0.039;entryDx=0;entryDy=0;entryPerimeter=0;" edge="1" parent="1" source="R8b1aDfxQuAAKfUh75f4-1780" target="R8b1aDfxQuAAKfUh75f4-1797">
          <mxGeometry relative="1" as="geometry">
            <Array as="points">
              <mxPoint x="880" y="340" />
            </Array>
          </mxGeometry>
        </mxCell>
        <mxCell id="R8b1aDfxQuAAKfUh75f4-1780" value="&lt;div&gt;Trader &lt;br&gt;&lt;/div&gt;&lt;div&gt;Vyvsaytmika Budhi&lt;br&gt;&lt;/div&gt;" style="rounded=1;whiteSpace=wrap;html=1;shadow=0;labelBackgroundColor=none;strokeColor=none;strokeWidth=3;fillColor=#61c6ce;fontFamily=Helvetica;fontSize=14;fontColor=#FFFFFF;align=center;spacing=5;fontStyle=0;arcSize=7;perimeterSpacing=2;" vertex="1" parent="1">
          <mxGeometry x="1100" y="360" width="150" height="60" as="geometry" />
        </mxCell>
      </root>
    </mxGraphModel>
  </diagram>
</mxfile>
